<svg width="616.1px" height="121.6px" xmlns="http://www.w3.org/2000/svg" viewBox="-58.06871337890624 14.199996948242188 616.1374267578125 121.60000610351562" style="background: rgba(0, 0, 0, 0)" preserveAspectRatio="xMidYMid"><defs><filter id="editing-offset"><feFlood flood-color="#f00" flood-opacity="0.5" result="c1"></feFlood><feFlood flood-color="#0f0" flood-opacity="0.5" result="c2"></feFlood><feFlood flood-color="#00f" flood-opacity="0.5" result="c3"></feFlood><feComposite operator="in" in="c1" in2="SourceAlpha" result="text-c1"></feComposite><feComposite operator="in" in="c2" in2="SourceAlpha" result="text-c2"></feComposite><feComposite operator="in" in="c3" in2="SourceAlpha" result="text-c3"></feComposite><feOffset in="text-c1" dx="-10" dy="0" result="text1"></feOffset><feOffset in="text-c2" dx="10" dy="0" result="text2"></feOffset><feOffset in="text-c3" dx="0" dy="0" result="text3"></feOffset><feMerge><feMergeNode in="text1"></feMergeNode><feMergeNode in="text2"></feMergeNode><feMergeNode in="text3"></feMergeNode></feMerge></filter></defs><g transform="matrix(1,0,0,1,0,0)" filter="url(#editing-offset)"><g transform="matrix(1.3,0,0,1.6,-23.3,100.1)"><path d="M 7.6 -5.8 L 7.6 -5.8 L 7.6 -5.8 Q 5.6 -1 -0.7 -1 L -0.7 -1 L -0.7 -1 Q -4 -1 -6 -3.2 L -6 -3.2 L -6 -3.2 Q -7.8 -5.2 -7.8 -7.2 L -7.8 -7.2 L -7.8 -7.2 Q -7.8 -12.3 -5.4 -22.5 L -5.4 -22.5 L -3 -34.9 L 10 -36.2 L 6.1 -15.9 L 6.1 -15.9 Q 5 -11.2 5 -9.5 L 5 -9.5 L 5 -9.5 Q 5 -5.9 7.6 -5.8 Z M -1.9 -43.8 L -1.9 -43.8 L -1.9 -43.8 Q -1.9 -46.3 0.2 -47.6 L 0.2 -47.6 L 0.2 -47.6 Q 2.3 -49 5.3 -49 L 5.3 -49 L 5.3 -49 Q 8.3 -49 10.1 -47.6 L 10.1 -47.6 L 10.1 -47.6 Q 11.9 -46.3 11.9 -43.8 L 11.9 -43.8 L 11.9 -43.8 Q 11.9 -41.3 9.9 -40 L 9.9 -40 L 9.9 -40 Q 7.9 -38.7 4.9 -38.7 L 4.9 -38.7 L 4.9 -38.7 Q 1.9 -38.7 0 -40 L 0 -40 L 0 -40 Q -1.9 -41.3 -1.9 -43.8 Z M 59.1 -1 L 59.1 -1 L 59.1 -1 Q 51.4 -1 51.4 -7 L 51.4 -7 L 51.4 -7 Q 51.4 -9.6 52.5 -14.7 L 52.5 -14.7 L 52.5 -14.7 Q 53.6 -19.8 54 -21.8 L 54 -21.8 L 54 -21.8 Q 54.9 -26.5 54.9 -28 L 54.9 -28 L 54.9 -28 Q 54.9 -31.2 52.5 -31.2 L 52.5 -31.2 L 52.5 -31.2 Q 50.9 -31.2 49.3 -29 L 49.3 -29 L 49.3 -29 Q 47.8 -26.8 47.1 -22.4 L 47.1 -22.4 L 43.1 -2.2 L 30.6 -1 L 34.1 -18.4 L 34.1 -18.4 Q 34.7 -21.2 35.2 -24.5 L 35.2 -24.5 L 35.2 -24.5 Q 35.7 -27.8 35.7 -28.3 L 35.7 -28.3 L 35.7 -28.3 Q 35.7 -31.2 33.5 -31.2 L 33.5 -31.2 L 33.5 -31.2 Q 32 -31.2 30.4 -29.1 L 30.4 -29.1 L 30.4 -29.1 Q 28.8 -26.9 27.9 -22.4 L 27.9 -22.4 L 24 -2.2 L 11.4 -1 L 18.2 -34.9 L 28.6 -36.2 L 27.5 -29.7 L 27.5 -29.7 Q 29.2 -33.1 32.2 -34.7 L 32.2 -34.7 L 32.2 -34.7 Q 35.3 -36.2 40.1 -36.2 L 40.1 -36.2 L 40.1 -36.2 Q 42.9 -36.2 44.6 -34.8 L 44.6 -34.8 L 44.6 -34.8 Q 46.4 -33.5 47 -31.3 L 47 -31.3 L 47 -31.3 Q 48.1 -33.5 50.9 -34.8 L 50.9 -34.8 L 50.9 -34.8 Q 53.7 -36.2 57.1 -36.2 L 57.1 -36.2 L 57.1 -36.2 Q 60.5 -36.2 62.2 -35.4 L 62.2 -35.4 L 62.2 -35.4 Q 63.9 -34.7 64.9 -33.5 L 64.9 -33.5 L 64.9 -33.5 Q 66.7 -31.2 66.7 -27.1 L 66.7 -27.1 L 66.7 -27.1 Q 66.7 -23.1 64.9 -14.7 L 64.9 -14.7 L 64.9 -14.7 Q 64 -10.6 64 -9.1 L 64 -9.1 L 64 -9.1 Q 64 -7.6 64.9 -6.7 L 64.9 -6.7 L 64.9 -6.7 Q 65.8 -5.8 67 -5.7 L 67 -5.7 L 67 -5.7 Q 66.4 -3.5 64.2 -2.2 L 64.2 -2.2 L 64.2 -2.2 Q 62 -1 59.1 -1 Z M 74.8 -4.2 L 74.8 -4.2 L 74.8 -4.2 Q 73.3 -5.8 72.6 -8.4 L 72.6 -8.4 L 72.6 -8.4 Q 71.9 -11.1 71.9 -15.4 L 71.9 -15.4 L 71.9 -15.4 Q 71.9 -19.6 73.4 -23.5 L 73.4 -23.5 L 73.4 -23.5 Q 74.9 -27.5 77.5 -30.3 L 77.5 -30.3 L 77.5 -30.3 Q 83 -36.2 92.1 -36.2 L 92.1 -36.2 L 92.1 -36.2 Q 95.4 -36.2 97.8 -35.1 L 97.8 -35.1 L 108.7 -36.2 L 104 -11.2 L 104 -11.2 Q 103.8 -10.4 103.8 -9 L 103.8 -9 L 103.8 -9 Q 103.8 -7.6 104.6 -6.7 L 104.6 -6.7 L 104.6 -6.7 Q 105.5 -5.8 106.8 -5.7 L 106.8 -5.7 L 106.8 -5.7 Q 106.2 -3.5 103.8 -2.2 L 103.8 -2.2 L 103.8 -2.2 Q 101.5 -1 98.9 -1 L 98.9 -1 L 98.9 -1 Q 96.2 -1 94.5 -1.9 L 94.5 -1.9 L 94.5 -1.9 Q 92.7 -2.9 92.2 -4.6 L 92.2 -4.6 L 92.2 -4.6 Q 91.2 -3 89 -2 L 89 -2 L 89 -2 Q 86.8 -1 83.9 -1 L 83.9 -1 L 83.9 -1 Q 81 -1 78.6 -1.7 L 78.6 -1.7 L 78.6 -1.7 Q 76.3 -2.5 74.8 -4.2 Z M 88.3 -30.1 L 88.3 -30.1 L 88.3 -30.1 Q 87.5 -29 86.9 -27 L 86.9 -27 L 86.9 -27 Q 86.2 -25.1 85.2 -19.9 L 85.2 -19.9 L 85.2 -19.9 Q 84.1 -14.7 84.1 -10.9 L 84.1 -10.9 L 84.1 -10.9 Q 84.1 -7.2 84.7 -6.1 L 84.7 -6.1 L 84.7 -6.1 Q 85.3 -5.1 86.3 -5.1 L 86.3 -5.1 L 86.3 -5.1 Q 88.4 -5.1 89.9 -7 L 89.9 -7 L 89.9 -7 Q 91.4 -9 91.9 -12.4 L 91.9 -12.4 L 95.3 -31.2 L 95.3 -31.2 Q 94 -32.3 92.4 -32.3 L 92.4 -32.3 L 92.4 -32.3 Q 90.9 -32.3 89.9 -31.8 L 89.9 -31.8 L 89.9 -31.8 Q 89 -31.3 88.3 -30.1 Z M 116.5 -29 L 116.5 -29 L 116.5 -29 Q 118.6 -32.1 121.9 -34.1 L 121.9 -34.1 L 121.9 -34.1 Q 125.2 -36.2 129.3 -36.2 L 129.3 -36.2 L 129.3 -36.2 Q 133.3 -36.2 135.2 -34.9 L 135.2 -34.9 L 147.8 -36.2 L 143.4 -11.6 L 143.4 -11.6 Q 141.2 1 136.4 5.9 L 136.4 5.9 L 136.4 5.9 Q 131.9 10.6 123 10.6 L 123 10.6 L 123 10.6 Q 116.3 10.6 112.5 8.5 L 112.5 8.5 L 112.5 8.5 Q 108.6 6.3 108.6 2.8 L 108.6 2.8 L 108.6 2.8 Q 108.6 0.2 110.6 -1.3 L 110.6 -1.3 L 110.6 -1.3 Q 112.6 -2.8 115.7 -2.8 L 115.7 -2.8 L 115.7 -2.8 Q 118.4 -2.8 120.4 -1.6 L 120.4 -1.6 L 120.4 -1.6 Q 121.6 -1 122.2 -0.1 L 122.2 -0.1 L 122.2 -0.1 Q 120.7 1.2 120.7 3.3 L 120.7 3.3 L 120.7 3.3 Q 120.7 6.1 123.3 6.1 L 123.3 6.1 L 123.3 6.1 Q 127.6 6.1 130 -4 L 130 -4 L 130 -4 Q 130.7 -6.8 131.3 -9.5 L 131.3 -9.5 L 131.3 -9.5 Q 128.4 -6 121.9 -6 L 121.9 -6 L 121.9 -6 Q 117.4 -6 114.7 -8.2 L 114.7 -8.2 L 114.7 -8.2 Q 112.1 -10.4 112.1 -15.5 L 112.1 -15.5 L 112.1 -15.5 Q 112.1 -18.7 113.2 -22.3 L 113.2 -22.3 L 113.2 -22.3 Q 114.3 -25.9 116.5 -29 Z M 124.8 -15.3 L 124.8 -15.3 L 124.8 -15.3 Q 124.8 -10.9 127 -10.9 L 127 -10.9 L 127 -10.9 Q 128.6 -10.9 130 -12.6 L 130 -12.6 L 130 -12.6 Q 131.2 -13.9 131.6 -15.9 L 131.6 -15.9 L 134.9 -32.4 L 134.9 -32.4 Q 134.6 -32.4 134.2 -32.6 L 134.2 -32.6 L 134.2 -32.6 Q 133.6 -32.8 132.8 -32.8 L 132.8 -32.8 L 132.8 -32.8 Q 128.9 -32.8 126.6 -26.4 L 126.6 -26.4 L 126.6 -26.4 Q 124.8 -21.4 124.8 -15.3 Z M 176.2 -13.1 L 176.2 -13.1 L 176.2 -13.1 Q 177.8 -12 177.8 -9.6 L 177.8 -9.6 L 177.8 -9.6 Q 177.8 -7.2 176.6 -5.6 L 176.6 -5.6 L 176.6 -5.6 Q 175.3 -4.1 173.4 -3.1 L 173.4 -3.1 L 173.4 -3.1 Q 169.3 -1 164.8 -1 L 164.8 -1 L 164.8 -1 Q 160.4 -1 157.8 -1.9 L 157.8 -1.9 L 157.8 -1.9 Q 155.2 -2.9 153.5 -4.7 L 153.5 -4.7 L 153.5 -4.7 Q 150.1 -8.1 150.1 -14.3 L 150.1 -14.3 L 150.1 -14.3 Q 150.1 -23.9 155.4 -29.8 L 155.4 -29.8 L 155.4 -29.8 Q 161 -36.2 170.8 -36.2 L 170.8 -36.2 L 170.8 -36.2 Q 176.9 -36.2 179.9 -33.6 L 179.9 -33.6 L 179.9 -33.6 Q 182.1 -31.7 182.1 -28.5 L 182.1 -28.5 L 182.1 -28.5 Q 182.1 -17.3 162.7 -17.3 L 162.7 -17.3 L 162.7 -17.3 Q 162.4 -15.6 162.4 -14.2 L 162.4 -14.2 L 162.4 -14.2 Q 162.4 -11.3 163.7 -10.1 L 163.7 -10.1 L 163.7 -10.1 Q 165 -9 167.5 -9 L 167.5 -9 L 167.5 -9 Q 169.9 -9 172.5 -10.1 L 172.5 -10.1 L 172.5 -10.1 Q 175.1 -11.3 176.2 -13.1 Z M 163.1 -20 L 163.1 -20 L 163.1 -20 Q 167.7 -20 170.3 -22.8 L 170.3 -22.8 L 170.3 -22.8 Q 172.9 -25.5 172.9 -29.8 L 172.9 -29.8 L 172.9 -29.8 Q 172.9 -31.3 172.4 -32.1 L 172.4 -32.1 L 172.4 -32.1 Q 171.8 -32.9 170.7 -32.9 L 170.7 -32.9 L 170.7 -32.9 Q 169.6 -32.9 168.7 -32.5 L 168.7 -32.5 L 168.7 -32.5 Q 167.8 -32.1 166.8 -30.7 L 166.8 -30.7 L 166.8 -30.7 Q 164.5 -27.5 163.1 -20 Z M 202 -29 L 202 -29 L 202 -29 Q 204.2 -32.1 207.5 -34.1 L 207.5 -34.1 L 207.5 -34.1 Q 210.8 -36.2 214.8 -36.2 L 214.8 -36.2 L 214.8 -36.2 Q 218.9 -36.2 220.8 -34.9 L 220.8 -34.9 L 233.3 -36.2 L 229 -11.6 L 229 -11.6 Q 226.7 1 222 5.9 L 222 5.9 L 222 5.9 Q 217.4 10.6 208.6 10.6 L 208.6 10.6 L 208.6 10.6 Q 201.9 10.6 198.1 8.5 L 198.1 8.5 L 198.1 8.5 Q 194.2 6.3 194.2 2.8 L 194.2 2.8 L 194.2 2.8 Q 194.2 0.2 196.2 -1.3 L 196.2 -1.3 L 196.2 -1.3 Q 198.2 -2.8 201.3 -2.8 L 201.3 -2.8 L 201.3 -2.8 Q 203.9 -2.8 206 -1.6 L 206 -1.6 L 206 -1.6 Q 207.2 -1 207.8 -0.1 L 207.8 -0.1 L 207.8 -0.1 Q 206.3 1.2 206.3 3.3 L 206.3 3.3 L 206.3 3.3 Q 206.3 6.1 208.9 6.1 L 208.9 6.1 L 208.9 6.1 Q 213.2 6.1 215.6 -4 L 215.6 -4 L 215.6 -4 Q 216.3 -6.8 216.9 -9.5 L 216.9 -9.5 L 216.9 -9.5 Q 214 -6 207.5 -6 L 207.5 -6 L 207.5 -6 Q 202.9 -6 200.3 -8.2 L 200.3 -8.2 L 200.3 -8.2 Q 197.7 -10.4 197.7 -15.5 L 197.7 -15.5 L 197.7 -15.5 Q 197.7 -18.7 198.8 -22.3 L 198.8 -22.3 L 198.8 -22.3 Q 199.8 -25.9 202 -29 Z M 210.3 -15.3 L 210.3 -15.3 L 210.3 -15.3 Q 210.3 -10.9 212.6 -10.9 L 212.6 -10.9 L 212.6 -10.9 Q 214.1 -10.9 215.6 -12.6 L 215.6 -12.6 L 215.6 -12.6 Q 216.7 -13.9 217.2 -15.9 L 217.2 -15.9 L 220.5 -32.4 L 220.5 -32.4 Q 220.1 -32.4 219.8 -32.6 L 219.8 -32.6 L 219.8 -32.6 Q 219.2 -32.8 218.3 -32.8 L 218.3 -32.8 L 218.3 -32.8 Q 214.4 -32.8 212.1 -26.4 L 212.1 -26.4 L 212.1 -26.4 Q 210.3 -21.4 210.3 -15.3 Z M 238.6 -4.2 L 238.6 -4.2 L 238.6 -4.2 Q 237.1 -5.8 236.4 -8.4 L 236.4 -8.4 L 236.4 -8.4 Q 235.8 -11.1 235.8 -15.4 L 235.8 -15.4 L 235.8 -15.4 Q 235.8 -19.6 237.2 -23.5 L 237.2 -23.5 L 237.2 -23.5 Q 238.7 -27.5 241.4 -30.3 L 241.4 -30.3 L 241.4 -30.3 Q 246.9 -36.2 256 -36.2 L 256 -36.2 L 256 -36.2 Q 259.2 -36.2 261.6 -35.1 L 261.6 -35.1 L 272.6 -36.2 L 267.8 -11.2 L 267.8 -11.2 Q 267.6 -10.4 267.6 -9 L 267.6 -9 L 267.6 -9 Q 267.6 -7.6 268.5 -6.7 L 268.5 -6.7 L 268.5 -6.7 Q 269.4 -5.8 270.6 -5.7 L 270.6 -5.7 L 270.6 -5.7 Q 270 -3.5 267.7 -2.2 L 267.7 -2.2 L 267.7 -2.2 Q 265.3 -1 262.7 -1 L 262.7 -1 L 262.7 -1 Q 260.1 -1 258.3 -1.9 L 258.3 -1.9 L 258.3 -1.9 Q 256.6 -2.9 256 -4.6 L 256 -4.6 L 256 -4.6 Q 255 -3 252.8 -2 L 252.8 -2 L 252.8 -2 Q 250.7 -1 247.8 -1 L 247.8 -1 L 247.8 -1 Q 244.8 -1 242.5 -1.7 L 242.5 -1.7 L 242.5 -1.7 Q 240.1 -2.5 238.6 -4.2 Z M 252.1 -30.1 L 252.1 -30.1 L 252.1 -30.1 Q 251.4 -29 250.7 -27 L 250.7 -27 L 250.7 -27 Q 250.1 -25.1 249 -19.9 L 249 -19.9 L 249 -19.9 Q 248 -14.7 248 -10.9 L 248 -10.9 L 248 -10.9 Q 248 -7.2 248.6 -6.1 L 248.6 -6.1 L 248.6 -6.1 Q 249.1 -5.1 250.2 -5.1 L 250.2 -5.1 L 250.2 -5.1 Q 252.2 -5.1 253.7 -7 L 253.7 -7 L 253.7 -7 Q 255.2 -9 255.8 -12.4 L 255.8 -12.4 L 259.2 -31.2 L 259.2 -31.2 Q 257.8 -32.3 256.3 -32.3 L 256.3 -32.3 L 256.3 -32.3 Q 254.7 -32.3 253.8 -31.8 L 253.8 -31.8 L 253.8 -31.8 Q 252.8 -31.3 252.1 -30.1 Z M 291.3 -5.8 L 291.3 -5.8 L 291.3 -5.8 Q 289.3 -1 283 -1 L 283 -1 L 283 -1 Q 279.8 -1 277.7 -3.2 L 277.7 -3.2 L 277.7 -3.2 Q 276.1 -5.1 276.1 -7.2 L 276.1 -7.2 L 276.1 -7.2 Q 276.1 -12 278.3 -22.5 L 278.3 -22.5 L 283 -47 L 296 -48.3 L 289.8 -15.9 L 289.8 -15.9 Q 288.7 -11.2 288.7 -9.5 L 288.7 -9.5 L 288.7 -9.5 Q 288.7 -5.9 291.3 -5.8 Z M 312 -5.8 L 312 -5.8 L 312 -5.8 Q 310.1 -1 303.7 -1 L 303.7 -1 L 303.7 -1 Q 300.5 -1 298.5 -3.2 L 298.5 -3.2 L 298.5 -3.2 Q 296.8 -5.1 296.8 -7.2 L 296.8 -7.2 L 296.8 -7.2 Q 296.8 -12 299 -22.5 L 299 -22.5 L 303.7 -47 L 316.7 -48.3 L 310.5 -15.9 L 310.5 -15.9 Q 309.4 -11.2 309.4 -9.5 L 309.4 -9.5 L 309.4 -9.5 Q 309.4 -5.9 312 -5.8 Z M 320.3 -4.2 L 320.3 -4.2 L 320.3 -4.2 Q 318.8 -5.8 318.1 -8.4 L 318.1 -8.4 L 318.1 -8.4 Q 317.4 -11.1 317.4 -15.4 L 317.4 -15.4 L 317.4 -15.4 Q 317.4 -19.6 318.9 -23.5 L 318.9 -23.5 L 318.9 -23.5 Q 320.4 -27.5 323 -30.3 L 323 -30.3 L 323 -30.3 Q 328.6 -36.2 337.6 -36.2 L 337.6 -36.2 L 337.6 -36.2 Q 340.9 -36.2 343.3 -35.1 L 343.3 -35.1 L 354.2 -36.2 L 349.5 -11.2 L 349.5 -11.2 Q 349.3 -10.4 349.3 -9 L 349.3 -9 L 349.3 -9 Q 349.3 -7.6 350.2 -6.7 L 350.2 -6.7 L 350.2 -6.7 Q 351 -5.8 352.3 -5.7 L 352.3 -5.7 L 352.3 -5.7 Q 351.7 -3.5 349.3 -2.2 L 349.3 -2.2 L 349.3 -2.2 Q 347 -1 344.4 -1 L 344.4 -1 L 344.4 -1 Q 341.7 -1 340 -1.9 L 340 -1.9 L 340 -1.9 Q 338.2 -2.9 337.7 -4.6 L 337.7 -4.6 L 337.7 -4.6 Q 336.7 -3 334.5 -2 L 334.5 -2 L 334.5 -2 Q 332.3 -1 329.4 -1 L 329.4 -1 L 329.4 -1 Q 326.5 -1 324.1 -1.7 L 324.1 -1.7 L 324.1 -1.7 Q 321.8 -2.5 320.3 -4.2 Z M 333.8 -30.1 L 333.8 -30.1 L 333.8 -30.1 Q 333 -29 332.4 -27 L 332.4 -27 L 332.4 -27 Q 331.8 -25.1 330.7 -19.9 L 330.7 -19.9 L 330.7 -19.9 Q 329.6 -14.7 329.6 -10.9 L 329.6 -10.9 L 329.6 -10.9 Q 329.6 -7.2 330.2 -6.1 L 330.2 -6.1 L 330.2 -6.1 Q 330.8 -5.1 331.8 -5.1 L 331.8 -5.1 L 331.8 -5.1 Q 333.9 -5.1 335.4 -7 L 335.4 -7 L 335.4 -7 Q 336.9 -9 337.4 -12.4 L 337.4 -12.4 L 340.8 -31.2 L 340.8 -31.2 Q 339.5 -32.3 337.9 -32.3 L 337.9 -32.3 L 337.9 -32.3 Q 336.4 -32.3 335.4 -31.8 L 335.4 -31.8 L 335.4 -31.8 Q 334.5 -31.3 333.8 -30.1 Z M 377.7 -20.2 L 377.7 -20.2 L 377.7 -20.2 Q 380 -24.3 380 -28.5 L 380 -28.5 L 380 -28.5 Q 380 -31.2 378 -31.2 L 378 -31.2 L 378 -31.2 Q 376.5 -31.2 374.9 -28.6 L 374.9 -28.6 L 374.9 -28.6 Q 373.2 -26 372.7 -22.6 L 372.7 -22.6 L 369.4 -2.2 L 356.1 -1 L 362.7 -34.9 L 373.2 -36.2 L 372.1 -29.7 L 372.1 -29.7 Q 375.2 -36.2 382.2 -36.2 L 382.2 -36.2 L 382.2 -36.2 Q 386 -36.2 388 -34.2 L 388 -34.2 L 388 -34.2 Q 390 -32.3 390 -28.4 L 390 -28.4 L 390 -28.4 Q 390 -24.4 387.4 -21.9 L 387.4 -21.9 L 387.4 -21.9 Q 384.8 -19.5 380.4 -19.5 L 380.4 -19.5 L 380.4 -19.5 Q 378.5 -19.5 377.7 -20.2 Z M 411.4 -9.5 L 411.4 -9.5 L 411.4 -9.5 Q 408 -6 402 -6 L 402 -6 L 402 -6 Q 394.3 -6 392.7 -11.6 L 392.7 -11.6 L 392.7 -11.6 Q 392.2 -13.2 392.2 -15.1 L 392.2 -15.1 L 392.2 -15.1 Q 392.2 -17 392.6 -18.9 L 392.6 -18.9 L 395.6 -34.9 L 408.6 -36.2 L 405.1 -17.5 L 405.1 -17.5 Q 405 -16.7 404.8 -15.8 L 404.8 -15.8 L 404.8 -15.8 Q 404.6 -14.9 404.6 -14 L 404.6 -14 L 404.6 -14 Q 404.6 -13.1 404.9 -12.4 L 404.9 -12.4 L 404.9 -12.4 Q 405.2 -11.8 405.7 -11.5 L 405.7 -11.5 L 405.7 -11.5 Q 406.4 -10.9 407.8 -10.9 L 407.8 -10.9 L 407.8 -10.9 Q 409.2 -10.9 410.4 -12.6 L 410.4 -12.6 L 410.4 -12.6 Q 411.6 -14.3 412.1 -17.1 L 412.1 -17.1 L 415.7 -34.9 L 428.3 -36.2 L 423.5 -11 L 423.5 -11 Q 421.1 1.3 416.2 6.1 L 416.2 6.1 L 416.2 6.1 Q 413.7 8.6 410.5 9.6 L 410.5 9.6 L 410.5 9.6 Q 407.3 10.6 403.1 10.6 L 403.1 10.6 L 403.1 10.6 Q 396.4 10.6 392.6 8.5 L 392.6 8.5 L 392.6 8.5 Q 388.7 6.4 388.7 2.9 L 388.7 2.9 L 388.7 2.9 Q 388.7 0.3 390.7 -1.2 L 390.7 -1.2 L 390.7 -1.2 Q 392.7 -2.7 395.8 -2.7 L 395.8 -2.7 L 395.8 -2.7 Q 398.4 -2.7 400.5 -1.6 L 400.5 -1.6 L 400.5 -1.6 Q 401.7 -0.9 402.3 0 L 402.3 0 L 402.3 0 Q 400.8 1.3 400.8 3.4 L 400.8 3.4 L 400.8 3.4 Q 400.8 6.2 403.4 6.2 L 403.4 6.2 L 403.4 6.2 Q 407.6 6.2 410 -3.5 L 410 -3.5 L 410 -3.5 Q 410.7 -6.4 411.4 -9.5 Z"></path></g></g><style>text {
  font-size: 64px;
  font-family: Arial Black;
  dominant-baseline: central;
  text-anchor: middle;
}</style></svg>